<?xml version="1.0" encoding="UTF-8"?>
<svg version="1.1" xmlns="http://www.w3.org/2000/svg" width="512" height="512">
<path d="M0 0 C1.51774716 -0.00418201 3.03549118 -0.00966424 4.55322951 -0.01631981 C8.68881069 -0.03067967 12.82419098 -0.02655957 16.95978272 -0.019153 C21.43367667 -0.01439999 25.90752849 -0.02694999 30.38140869 -0.03717041 C39.13275477 -0.05432247 47.88402894 -0.05520585 56.63538746 -0.04995751 C63.75260586 -0.04590765 70.86980309 -0.04736904 77.98702049 -0.05270576 C79.00197249 -0.05345419 80.01692449 -0.05420261 81.06263262 -0.05497371 C83.12485698 -0.05650527 85.18708134 -0.05804362 87.24930569 -0.05958868 C106.56688979 -0.07330087 125.88443333 -0.06788517 145.2020165 -0.05640347 C162.85050508 -0.04647378 180.49888879 -0.05940948 198.1473612 -0.08333766 C216.29586007 -0.10775721 234.44431015 -0.11732943 252.59282511 -0.11068493 C262.77098846 -0.10719889 272.94907119 -0.10938404 283.12722206 -0.12693596 C291.79212366 -0.14169374 300.45688787 -0.14224684 309.12178687 -0.12486505 C313.53700137 -0.11638181 317.95197084 -0.11413952 322.36717224 -0.1295166 C326.41945967 -0.14345424 330.47129424 -0.13848556 334.52355608 -0.11927737 C335.97902673 -0.11554461 337.43453447 -0.11835942 338.88997183 -0.12888902 C352.03093974 -0.21709822 365.19117489 1.80551189 376.88615417 8.13768005 C377.54510681 8.48274597 378.20405945 8.82781189 378.88298035 9.18333435 C399.04360049 20.0069214 414.63686273 37.39301443 421.57365417 59.38768005 C424.31356033 68.92969348 425.00618639 77.92925564 424.96133423 87.81402588 C424.96551624 89.33177304 424.97099847 90.84951706 424.97765404 92.36725539 C424.9920139 96.50283657 424.9878938 100.63821686 424.98048723 104.7738086 C424.97573421 109.24770255 424.98828422 113.72155437 424.99850464 118.19543457 C425.01565669 126.94678065 425.01654008 135.69805482 425.01129173 144.44941334 C425.00724188 151.56663174 425.00870327 158.68382897 425.01403999 165.80104637 C425.01478842 166.81599837 425.01553684 167.83095037 425.01630794 168.8766585 C425.0178395 170.93888286 425.01937785 173.00110721 425.02092291 175.06333157 C425.0346351 194.38091567 425.0292194 213.69845921 425.01773769 233.01604237 C425.00780801 250.66453096 425.02074371 268.31291466 425.04467189 285.96138708 C425.06909144 304.10988595 425.07866366 322.25833603 425.07201916 340.40685099 C425.06853311 350.58501434 425.07071827 360.76309707 425.08827019 370.94124794 C425.10302797 379.60614953 425.10358107 388.27091375 425.08619928 396.93581275 C425.07771604 401.35102725 425.07547375 405.76599671 425.09085083 410.18119812 C425.10478847 414.23348555 425.09981979 418.28532012 425.08061159 422.33758195 C425.07687884 423.79305261 425.07969365 425.24856035 425.09022325 426.70399771 C425.17843245 439.84496562 423.15582234 453.00520077 416.82365417 464.70018005 C416.47858826 465.35913269 416.13352234 466.01808533 415.77799988 466.69700623 C404.95419167 486.85803832 387.56838012 502.45028934 365.57365417 509.38768005 C356.0174008 512.13328696 347.0023219 512.82013196 337.10261536 512.77536011 C335.58003072 512.77954206 334.0574492 512.78502426 332.53487337 512.79167992 C328.3859602 512.80604034 324.23724728 512.80191951 320.08832359 512.79451311 C315.60013376 512.78976028 311.11198594 512.80230989 306.62380981 512.81253052 C297.84472532 512.82968251 289.06571252 512.83056603 280.28661563 512.82531761 C273.14745882 512.821268 266.00832313 512.82272885 258.86916733 512.82806587 C257.3421432 512.82918851 257.3421432 512.82918851 255.7842701 512.83033382 C253.71584301 512.83186537 251.64741592 512.83340372 249.57898884 512.83494879 C230.20373102 512.84866077 210.82851365 512.84324526 191.45325677 512.83176357 C173.74912728 512.82183231 156.04510232 512.83477236 138.34098895 512.85869776 C120.13712433 512.88311212 101.93330835 512.89269091 83.7294277 512.88604504 C73.51943825 512.88255805 63.30952917 512.88475052 53.09955215 512.90229607 C44.40827169 512.91704726 35.71712818 512.9176154 27.02585031 512.90022516 C22.5965831 512.89173684 18.16756025 512.88951227 13.73830605 512.90487671 C9.67435188 512.9187988 5.6108497 512.91386519 1.54692118 512.89463747 C0.08608477 512.89090005 -1.3747885 512.89373339 -2.83559184 512.90424912 C-15.83224178 512.99106638 -28.1014627 510.81649353 -39.67634583 504.63768005 C-40.33981018 504.29261414 -41.00327454 503.94754822 -41.68684387 503.59202576 C-61.88405916 492.8222965 -77.48975975 475.38169451 -84.42634583 453.38768005 C-87.16625198 443.84566663 -87.85887805 434.84610447 -87.81402588 424.96133423 C-87.81820789 423.44358707 -87.82369012 421.92584304 -87.83034569 420.40810472 C-87.84470555 416.27252354 -87.84058545 412.13714324 -87.83317888 408.00155151 C-87.82842587 403.52765755 -87.84097587 399.05380574 -87.85119629 394.57992554 C-87.86834834 385.82857946 -87.86923173 377.07730529 -87.86398339 368.32594677 C-87.85993353 361.20872837 -87.86139492 354.09153114 -87.86673164 346.97431374 C-87.86748007 345.95936174 -87.86822849 344.94440973 -87.86899959 343.89870161 C-87.87053115 341.83647725 -87.8720695 339.77425289 -87.87361456 337.71202854 C-87.88732675 318.39444444 -87.88191105 299.0769009 -87.87042934 279.75931773 C-87.86049966 262.11082915 -87.87343536 244.46244544 -87.89736354 226.81397303 C-87.92178309 208.66547416 -87.93135531 190.51702408 -87.92471081 172.36850911 C-87.92122476 162.19034577 -87.92340992 152.01226304 -87.94096184 141.83411217 C-87.95571962 133.16921057 -87.95627272 124.50444636 -87.93889093 115.83954736 C-87.93040769 111.42433285 -87.9281654 107.00936339 -87.94354248 102.59416199 C-87.95748012 98.54187455 -87.95251144 94.49003999 -87.93330324 90.43777815 C-87.92957049 88.98230749 -87.9323853 87.52679975 -87.9429149 86.0713624 C-88.0311241 72.93039449 -86.00851399 59.77015934 -79.67634583 48.07518005 C-79.33127991 47.41622742 -78.98621399 46.75727478 -78.63069153 46.07835388 C-67.80710448 25.91773373 -50.42101145 10.3244715 -28.42634583 3.38768005 C-18.8843324 0.64777389 -9.88477024 -0.04485217 0 0 Z " fill="#E8E8F3" transform="translate(87.42634582519531,-0.3876800537109375)"/>
<path d="M0 0 C0.9595459 0.31529663 0.9595459 0.31529663 1.93847656 0.63696289 C8.5757041 3.17358506 14.35601256 7.39954643 20.26844788 11.26870155 C21.5665202 12.11624118 22.86718826 12.95982153 24.17070007 13.79897118 C35.61484846 21.1716244 46.32920306 29.27868926 56.625 38.1875 C57.40072987 38.85756199 58.17645973 39.52762398 58.97569656 40.21799088 C80.26595384 58.95860794 91.49800911 78.46014597 93.43675447 106.68432188 C94.29550627 121.21307234 94.1672294 135.71100992 93.6875 150.25 C93.66350852 151.01296922 93.63951704 151.77593843 93.61479855 152.56202793 C91.4492342 220.49960554 91.4492342 220.49960554 81.5 238.875 C81.15493408 239.53395264 80.80986816 240.19290527 80.4543457 240.87182617 C69.63053749 261.03285826 52.24472595 276.62510929 30.25 283.5625 C20.69374663 286.3081069 11.67866773 286.99495191 1.77896118 286.95018005 C0.25637654 286.954362 -1.26620497 286.95984421 -2.78878081 286.96649987 C-6.93769397 286.98086029 -11.0864069 286.97673946 -15.23533058 286.96933305 C-19.72352042 286.96458022 -24.21166823 286.97712983 -28.69984436 286.98735046 C-37.47892885 287.00450245 -46.25794166 287.00538597 -55.03703855 287.00013756 C-62.17619535 286.99608795 -69.31533105 286.9975488 -76.45448685 287.00288582 C-77.98151097 287.00400845 -77.98151097 287.00400845 -79.53938407 287.00515376 C-81.60781117 287.00668532 -83.67623826 287.00822367 -85.74466534 287.00976873 C-105.11992315 287.02348072 -124.49514053 287.01806521 -143.8703974 287.00658352 C-161.57452689 286.99665225 -179.27855186 287.0095923 -196.98266523 287.03351771 C-215.18652984 287.05793207 -233.39034582 287.06751085 -251.59422648 287.06086498 C-261.80421592 287.05737799 -272.014125 287.05957046 -282.22410202 287.07711601 C-290.91538249 287.09186721 -299.606526 287.09243535 -308.29780386 287.0750451 C-312.72707108 287.06655678 -317.15609392 287.06433221 -321.58534813 287.07969666 C-325.6493023 287.09361875 -329.71280448 287.08868514 -333.776733 287.06945742 C-335.2375694 287.06572 -336.69844268 287.06855333 -338.15924601 287.07906907 C-351.15589596 287.16588633 -363.42511687 284.99131348 -375 278.8125 C-375.66346436 278.46743408 -376.32692871 278.12236816 -377.01049805 277.7668457 C-397.17616678 267.01393797 -412.85917121 249.55193045 -419.75 227.5625 C-424.39486732 210.46869668 -425.56757993 192.75602884 -426.3125 175.125 C-426.35293552 174.19057194 -426.39337105 173.25614388 -426.43503189 172.29339981 C-427.33105823 148.58908865 -425.62388809 129.51573757 -409.36517906 111.31390953 C-405.26520853 106.89342025 -400.92231276 102.77611196 -396.4375 98.75 C-395.81435535 98.18955616 -395.19121071 97.62911232 -394.54918289 97.05168533 C-381.40262224 85.33694757 -367.18166918 73.57689508 -351.0625 66.25 C-350.04800781 65.77949219 -349.03351563 65.30898438 -347.98828125 64.82421875 C-329.48929248 57.61653072 -307.51637827 60.09520015 -289.6640625 67.9140625 C-276.25097778 74.63939069 -265.88718825 86.14949935 -255.45703125 96.66015625 C-254.01587736 98.10504872 -252.57427503 99.54949402 -251.13224792 100.99351501 C-247.37141693 104.76191596 -243.61663573 108.5362873 -239.86315918 112.31201172 C-236.01858732 116.17718642 -232.16821828 120.03657701 -228.31835938 123.89648438 C-220.78994586 131.4462304 -213.26792233 139.00230795 -205.75 146.5625 C-200.93800475 145.3959557 -198.84158926 142.58827916 -195.80734444 138.95459175 C-191.73086902 134.21483936 -187.19921001 129.89109226 -182.76928711 125.48413086 C-181.67433166 124.39109837 -180.57960647 123.29783519 -179.48509216 122.20436096 C-177.14194288 119.86435435 -174.79725383 117.52590587 -172.45133781 115.18867302 C-168.73720466 111.48814621 -165.02696381 107.78373302 -161.317276 104.07875061 C-153.44365217 96.21619081 -145.56579814 88.35787571 -137.6875 80.5 C-129.17671967 72.01127461 -120.66668492 63.52180962 -112.1615296 55.02744776 C-108.4782461 51.34912774 -104.79254285 47.67325533 -101.10492885 43.999277 C-98.80755361 41.70939163 -96.51227951 39.41740888 -94.21755409 37.12486839 C-93.15828283 36.06745973 -92.09815223 35.01091107 -91.03707123 33.95531845 C-85.71616886 28.6610605 -80.58544211 23.3076394 -75.75 17.5625 C-55.88801425 -0.94947032 -26.17762023 -8.74834263 0 0 Z " fill="#D5D5E2" transform="translate(422.75,225.4375)"/>
<path d="M0 0 C9.67883133 7.17339389 18.02995714 15.73653928 26.51171875 24.24609375 C27.97544209 25.70846733 29.43946201 27.17054412 30.90376282 28.63233948 C33.94845593 31.67410437 36.98955256 34.71940654 40.02807617 37.76733398 C43.92978749 41.68053027 47.84053384 45.58455549 51.75393963 49.48605251 C54.76771303 52.49262267 57.77673651 55.50391005 60.78431129 58.51667976 C62.22580873 59.95951324 63.6687985 61.40085733 65.11328697 62.84069633 C67.11904599 64.84140559 69.11833241 66.84836085 71.1159668 68.85717773 C71.71583405 69.45299652 72.31570129 70.04881531 72.93374634 70.66268921 C77 74.77145427 77 74.77145427 77 77 C75.38052316 78.71255666 73.70416085 80.37169064 72 82 C71.1882859 82.8107923 70.37657181 83.62158461 69.54026031 84.45694637 C68.67381645 85.32209142 67.80737259 86.18723646 66.91467285 87.07859802 C65.90362758 88.08817755 64.89258547 89.09776023 63.88154602 90.10734558 C63.34762049 90.64049566 62.81369495 91.17364574 62.26358986 91.72295189 C49.94038278 104.02842912 37.6200774 116.33680821 25.30138397 128.64680386 C18.18388653 135.75914017 11.06544829 142.87053018 3.94482422 149.97973633 C-2.27799138 156.19257893 -8.49904182 162.40718268 -14.71798754 168.62389904 C-18.00599177 171.91060179 -21.294865 175.19642406 -24.58586121 178.48013115 C-27.6807994 181.56826836 -30.77336782 184.65875916 -33.86415672 187.75104904 C-34.99642244 188.88304038 -36.12954092 190.01417951 -37.26358986 191.14438438 C-38.81628802 192.69207818 -40.36583568 194.24286203 -41.91467285 195.79441833 C-42.78111671 196.6599404 -43.64756058 197.52546247 -44.54026031 198.41721249 C-46.37680336 200.34562812 -48.0338484 202.25495002 -49.69283295 204.32534885 C-50.83488064 205.64930117 -50.83488064 205.64930117 -52 207 C-52.66 207 -53.32 207 -54 207 C-54.28875 207.61875 -54.5775 208.2375 -54.875 208.875 C-56 211 -56 211 -58 213 C-76.60540041 215.03865402 -93.46481384 208.56203634 -108.1875 197.1875 C-109.8106873 195.81383178 -111.4148245 194.41736376 -113 193 C-113.83273438 192.26136719 -114.66546875 191.52273438 -115.5234375 190.76171875 C-140.24440968 167.5240049 -143.20871075 134.60445777 -144.5625 102.5625 C-144.60293552 101.62807194 -144.64337105 100.69364388 -144.68503189 99.73089981 C-145.58105823 76.02658865 -143.87388809 56.95323757 -127.61517906 38.75140953 C-123.51520853 34.33092025 -119.17231276 30.21361196 -114.6875 26.1875 C-114.06435535 25.62705616 -113.44121071 25.06661232 -112.79918289 24.48918533 C-99.65262224 12.77444757 -85.43166918 1.01439508 -69.3125 -6.3125 C-68.29800781 -6.78300781 -67.28351563 -7.25351562 -66.23828125 -7.73828125 C-45.15597877 -15.95249561 -18.72976396 -12.33165 0 0 Z " fill="#BEBECE" transform="translate(141,298)"/>
<path d="M0 0 C1.20484013 0.70014324 2.39507169 1.42661143 3.5625 2.1875 C4.3875 2.72375 5.2125 3.26 6.0625 3.8125 C6.5575 4.26625 7.0525 4.72 7.5625 5.1875 C7.5625 5.8475 7.5625 6.5075 7.5625 7.1875 C8.5525 7.5175 9.5425 7.8475 10.5625 8.1875 C10.5625 8.8475 10.5625 9.5075 10.5625 10.1875 C11.2225 10.1875 11.8825 10.1875 12.5625 10.1875 C12.5625 10.8475 12.5625 11.5075 12.5625 12.1875 C13.201875 12.455625 13.84125 12.72375 14.5 13 C16.5625 14.1875 16.5625 14.1875 17.5625 17.1875 C18.2225 17.1875 18.8825 17.1875 19.5625 17.1875 C19.5625 17.8475 19.5625 18.5075 19.5625 19.1875 C20.2225 19.1875 20.8825 19.1875 21.5625 19.1875 C21.5625 19.8475 21.5625 20.5075 21.5625 21.1875 C22.2225 21.1875 22.8825 21.1875 23.5625 21.1875 C23.5625 21.8475 23.5625 22.5075 23.5625 23.1875 C24.2225 23.1875 24.8825 23.1875 25.5625 23.1875 C25.5625 23.8475 25.5625 24.5075 25.5625 25.1875 C26.5525 25.5175 27.5425 25.8475 28.5625 26.1875 C28.5625 26.8475 28.5625 27.5075 28.5625 28.1875 C35.93786806 22.00245625 42.57651339 15.16517694 49.22851562 8.21875 C54.63324329 2.70254209 58.5703832 -1.04181159 66.37109375 -2.24609375 C73.83428349 -2.25718318 79.03233309 -1.15429832 84.5390625 4.05859375 C89.20529508 9.1376823 91.83546557 13.44942062 91.9375 20.5 C91.96585937 21.38300781 91.99421875 22.26601562 92.0234375 23.17578125 C90.34403987 34.14879455 81.15774818 40.85429836 73.52124023 48.07128906 C71.86192407 49.64653826 70.21776828 51.23645844 68.57421875 52.828125 C68.05663498 53.30735413 67.53905121 53.78658325 67.00578308 54.28033447 C65.406981 55.77664024 65.406981 55.77664024 63.5625 58.1875 C63.71993572 61.61172682 65.19972483 63.18521573 67.625 65.5 C68.2540625 66.10199219 68.883125 66.70398438 69.53125 67.32421875 C75.87035398 73.14290317 75.87035398 73.14290317 82.6875 78.375 C87.84254579 82.69447518 90.87025284 89.57406799 92.11328125 96.0625 C92.45788676 102.99399374 90.51927334 108.52504993 86.5625 114.1875 C82.45749483 118.70394077 78.12149301 121.72999118 71.94921875 122.5234375 C70.61310547 122.54277344 70.61310547 122.54277344 69.25 122.5625 C68.36699219 122.59085937 67.48398437 122.61921875 66.57421875 122.6484375 C59.40260494 121.55083642 54.21263885 117.42836912 49.3125 112.328125 C48.76891846 111.77888367 48.22533691 111.22964233 47.6652832 110.66375732 C45.95461307 108.930942 44.25849463 107.18466897 42.5625 105.4375 C41.39547088 104.25037763 40.22750975 103.06417073 39.05859375 101.87890625 C36.21569235 98.99222829 33.38574121 96.09340368 30.5625 93.1875 C26.61374259 94.76966987 24.04820149 97.51054838 21.16796875 100.52734375 C20.1194244 101.60118862 19.07058697 102.67474738 18.02148438 103.74804688 C16.385154 105.43388133 14.75219346 107.12271626 13.12475586 108.81713867 C11.54400153 110.45873731 9.95067813 112.08730486 8.35546875 113.71484375 C7.64102852 114.46966286 7.64102852 114.46966286 6.91215515 115.23973083 C2.76600141 119.44587205 -1.37912312 121.71534446 -7.24609375 122.62109375 C-14.47898244 122.63184098 -19.73379595 121.58817372 -25.15625 116.609375 C-30.68765668 110.58990302 -33.18345857 104.34965178 -32.90234375 96.15234375 C-31.20909111 85.35252232 -24.55167717 78.80257699 -16.4375 72.1875 C-14.6391914 70.54892654 -12.8473497 68.90322362 -11.0625 67.25 C-8.27698858 64.67771177 -5.84929019 62.80924178 -2.4375 61.1875 C-8.62254375 53.81213194 -15.45982306 47.17348661 -22.40625 40.52148438 C-27.92245791 35.11675671 -31.66681159 31.1796168 -32.87109375 23.37890625 C-32.88218318 15.91571651 -31.77929832 10.71766691 -26.56640625 5.2109375 C-19.00096103 -1.73954715 -9.76411912 -4.77235035 0 0 Z " fill="#BEBECE" transform="translate(226.4375,67.8125)"/>
</svg>
